<svg xmlns="http://www.w3.org/2000/svg" xmlns:xlink="http://www.w3.org/1999/xlink" width="1587" zoomAndPan="magnify" viewBox="0 0 1190.25 340.499992" height="453" preserveAspectRatio="xMidYMid meet" version="1.0"><defs><g/><clipPath id="id1"><path d="M 63 74 L 279 74 L 279 266 L 63 266 Z M 63 74 " clip-rule="nonzero"/></clipPath><clipPath id="id2"><path d="M 34.464844 128.191406 L 193.085938 28.730469 L 307.664062 211.464844 L 149.042969 310.925781 Z M 34.464844 128.191406 " clip-rule="nonzero"/></clipPath><clipPath id="id3"><path d="M 34.464844 128.191406 L 193.085938 28.730469 L 307.664062 211.464844 L 149.042969 310.925781 Z M 34.464844 128.191406 " clip-rule="nonzero"/></clipPath></defs><g clip-path="url(#id1)"><g clip-path="url(#id2)"><g clip-path="url(#id3)"><path fill="#ff00ff" d="M 113.820312 78.535156 L 63.242188 174.089844 L 120.261719 265.027344 L 228.308594 261.121094 L 278.886719 165.566406 L 221.867188 74.628906 Z M 223 167.191406 L 146.066406 215.429688 L 146.984375 131.425781 Z M 133.410156 214.199219 L 81.046875 173.910156 L 134.285156 134.230469 Z M 228.136719 178.929688 L 219.148438 246.511719 L 154.398438 225.167969 Z M 227.40625 155.261719 L 155.039062 121.214844 L 213.945312 90.578125 Z M 143.019531 113.175781 L 128.90625 90.671875 L 190.574219 88.445312 Z M 132.285156 119.90625 L 89.304688 151.941406 L 118.175781 97.402344 Z M 131.589844 228.785156 L 123.082031 245.675781 L 94.683594 200.386719 Z M 142.808594 234.6875 L 188.847656 249.863281 L 134.167969 251.839844 Z M 241.753906 172.644531 L 260.960938 172.335938 L 235.363281 220.695312 Z M 241.328125 159.976562 L 231.839844 114.382812 L 260.238281 159.671875 Z M 241.328125 159.976562 " fill-opacity="1" fill-rule="nonzero"/></g></g></g><g fill="#ffffff" fill-opacity="1"><g transform="translate(317.819557, 156.649182)"><g><path d="M 6.203125 -72.421875 L 49.671875 -72.421875 C 56.910156 -72.421875 62.164062 -70.78125 65.4375 -67.5 C 68.71875 -64.226562 70.359375 -58.972656 70.359375 -51.734375 L 70.359375 -41.390625 C 70.359375 -34.140625 68.71875 -28.875 65.4375 -25.59375 C 62.164062 -22.320312 56.910156 -20.6875 49.671875 -20.6875 L 24.828125 -20.6875 L 24.828125 0 L 6.203125 0 Z M 51.734375 -51.734375 C 51.734375 -55.867188 49.664062 -57.9375 45.53125 -57.9375 L 24.828125 -57.9375 L 24.828125 -35.171875 L 45.53125 -35.171875 C 49.664062 -35.171875 51.734375 -37.242188 51.734375 -41.390625 Z M 51.734375 -51.734375 "/></g></g></g><g fill="#ffffff" fill-opacity="1"><g transform="translate(391.277242, 156.649182)"><g><path d="M 63.640625 0 L 6.203125 0 L 6.203125 -72.421875 L 63.640625 -72.421875 L 63.640625 -57.9375 L 24.828125 -57.9375 L 24.828125 -43.96875 L 55.359375 -43.96875 L 55.359375 -29.484375 L 24.828125 -29.484375 L 24.828125 -14.484375 L 63.640625 -14.484375 Z M 63.640625 0 "/></g></g></g><g fill="#ffffff" fill-opacity="1"><g transform="translate(456.975319, 156.649182)"><g><path d="M 69.328125 0 L 49.671875 0 L 24.828125 -43.453125 L 24.828125 0 L 6.203125 0 L 6.203125 -72.421875 L 25.859375 -72.421875 L 50.703125 -28.96875 L 50.703125 -72.421875 L 69.328125 -72.421875 Z M 69.328125 0 "/></g></g></g><g fill="#ffffff" fill-opacity="1"><g transform="translate(532.502238, 156.649182)"><g><path d="M 6.203125 -72.421875 L 47.59375 -72.421875 C 54.351562 -72.421875 59.316406 -70.882812 62.484375 -67.8125 C 65.660156 -64.75 67.25 -60.078125 67.25 -53.796875 C 67.25 -49.660156 66.351562 -46.296875 64.5625 -43.703125 C 62.769531 -41.117188 60.5625 -39.3125 57.9375 -38.28125 C 63.53125 -36.757812 67.328125 -33.035156 69.328125 -27.109375 C 70.015625 -24.972656 70.359375 -22.488281 70.359375 -19.65625 C 70.359375 -12.894531 68.769531 -7.925781 65.59375 -4.75 C 62.425781 -1.582031 57.460938 0 50.703125 0 L 6.203125 0 Z M 51.734375 -22.765625 C 51.734375 -26.898438 49.664062 -28.96875 45.53125 -28.96875 L 24.828125 -28.96875 L 24.828125 -14.484375 L 45.53125 -14.484375 C 49.664062 -14.484375 51.734375 -16.550781 51.734375 -20.6875 Z M 48.625 -51.734375 C 48.625 -55.867188 46.554688 -57.9375 42.421875 -57.9375 L 24.828125 -57.9375 L 24.828125 -43.453125 L 42.421875 -43.453125 C 46.554688 -43.453125 48.625 -45.523438 48.625 -49.671875 Z M 48.625 -51.734375 "/></g></g></g><g fill="#ffffff" fill-opacity="1"><g transform="translate(605.959923, 156.649182)"><g><path d="M 6.203125 -72.421875 L 49.671875 -72.421875 C 56.910156 -72.421875 62.164062 -70.78125 65.4375 -67.5 C 68.71875 -64.226562 70.359375 -58.972656 70.359375 -51.734375 L 70.359375 -42.421875 C 70.359375 -36.691406 69.410156 -32.238281 67.515625 -29.0625 C 65.617188 -25.894531 62.597656 -23.796875 58.453125 -22.765625 L 71.390625 0 L 51.21875 0 L 39.3125 -21.734375 L 24.828125 -21.734375 L 24.828125 0 L 6.203125 0 Z M 51.734375 -51.734375 C 51.734375 -55.867188 49.664062 -57.9375 45.53125 -57.9375 L 24.828125 -57.9375 L 24.828125 -36.21875 L 45.53125 -36.21875 C 49.664062 -36.21875 51.734375 -38.285156 51.734375 -42.421875 Z M 51.734375 -51.734375 "/></g></g></g><g fill="#ffffff" fill-opacity="1"><g transform="translate(680.452217, 156.649182)"><g><path d="M 19.140625 0 L -1.03125 0 L 26.390625 -72.421875 L 47.078125 -72.421875 L 74.5 0 L 54.328125 0 L 49.671875 -12.9375 L 23.796875 -12.9375 Z M 28.453125 -26.390625 L 45.015625 -26.390625 L 36.734375 -50.703125 Z M 28.453125 -26.390625 "/></g></g></g><g fill="#ffffff" fill-opacity="1"><g transform="translate(753.909884, 156.649182)"><g><path d="M 68.296875 -40.359375 L 53.796875 -14.484375 L 39.3125 -14.484375 L 24.828125 -40.359375 L 24.828125 0 L 6.203125 0 L 6.203125 -72.421875 L 25.859375 -72.421875 L 46.5625 -34.140625 L 67.25 -72.421875 L 86.90625 -72.421875 L 86.90625 0 L 68.296875 0 Z M 68.296875 -40.359375 "/></g></g></g><g fill="#ffffff" fill-opacity="1"><g transform="translate(847.025274, 156.649182)"><g/></g></g><g fill="#ffffff" fill-opacity="1"><g transform="translate(878.063713, 156.649182)"><g><path d="M 58.984375 -72.421875 L 71.390625 -25.859375 L 82.25 -72.421875 L 102.4375 -72.421875 L 82.78125 0 L 63.109375 0 L 50.703125 -45.015625 L 38.28125 0 L 18.625 0 L -1.03125 -72.421875 L 19.140625 -72.421875 L 30 -25.859375 L 42.421875 -72.421875 Z M 58.984375 -72.421875 "/></g></g></g><g fill="#ffffff" fill-opacity="1"><g transform="translate(979.456035, 156.649182)"><g><path d="M 63.640625 0 L 6.203125 0 L 6.203125 -72.421875 L 63.640625 -72.421875 L 63.640625 -57.9375 L 24.828125 -57.9375 L 24.828125 -43.96875 L 55.359375 -43.96875 L 55.359375 -29.484375 L 24.828125 -29.484375 L 24.828125 -14.484375 L 63.640625 -14.484375 Z M 63.640625 0 "/></g></g></g><g fill="#ffffff" fill-opacity="1"><g transform="translate(1045.154093, 156.649182)"><g><path d="M 6.203125 -72.421875 L 47.59375 -72.421875 C 54.351562 -72.421875 59.316406 -70.882812 62.484375 -67.8125 C 65.660156 -64.75 67.25 -60.078125 67.25 -53.796875 C 67.25 -49.660156 66.351562 -46.296875 64.5625 -43.703125 C 62.769531 -41.117188 60.5625 -39.3125 57.9375 -38.28125 C 63.53125 -36.757812 67.328125 -33.035156 69.328125 -27.109375 C 70.015625 -24.972656 70.359375 -22.488281 70.359375 -19.65625 C 70.359375 -12.894531 68.769531 -7.925781 65.59375 -4.75 C 62.425781 -1.582031 57.460938 0 50.703125 0 L 6.203125 0 Z M 51.734375 -22.765625 C 51.734375 -26.898438 49.664062 -28.96875 45.53125 -28.96875 L 24.828125 -28.96875 L 24.828125 -14.484375 L 45.53125 -14.484375 C 49.664062 -14.484375 51.734375 -16.550781 51.734375 -20.6875 Z M 48.625 -51.734375 C 48.625 -55.867188 46.554688 -57.9375 42.421875 -57.9375 L 24.828125 -57.9375 L 24.828125 -43.453125 L 42.421875 -43.453125 C 46.554688 -43.453125 48.625 -45.523438 48.625 -49.671875 Z M 48.625 -51.734375 "/></g></g></g><g fill="#ffffff" fill-opacity="1"><g transform="translate(318.86938, 273.160436)"><g><path d="M 5.203125 -19.359375 C 29.585938 -18.023438 46.097656 -17.359375 54.734375 -17.359375 C 56.785156 -17.359375 58.410156 -17.957031 59.609375 -19.15625 C 60.804688 -20.351562 61.40625 -21.976562 61.40625 -24.03125 L 61.40625 -36.046875 L 30.703125 -36.046875 C 21.359375 -36.046875 14.570312 -38.160156 10.34375 -42.390625 C 6.113281 -46.617188 4 -53.40625 4 -62.75 L 4 -66.75 C 4 -76.09375 6.113281 -82.878906 10.34375 -87.109375 C 14.570312 -91.335938 21.359375 -93.453125 30.703125 -93.453125 L 77.5625 -93.453125 L 77.5625 -74.765625 L 36.046875 -74.765625 C 30.703125 -74.765625 28.03125 -72.09375 28.03125 -66.75 L 28.03125 -64.078125 C 28.03125 -58.734375 30.703125 -56.0625 36.046875 -56.0625 L 60.078125 -56.0625 C 68.796875 -56.0625 75.203125 -54.015625 79.296875 -49.921875 C 83.390625 -45.828125 85.4375 -39.421875 85.4375 -30.703125 L 85.4375 -24.03125 C 85.4375 -15.3125 83.390625 -8.90625 79.296875 -4.8125 C 75.203125 -0.71875 68.796875 1.328125 60.078125 1.328125 C 55.535156 1.328125 50.726562 1.238281 45.65625 1.0625 L 33.375 0.53125 C 24.300781 0.0820312 14.910156 -0.535156 5.203125 -1.328125 Z M 5.203125 -19.359375 "/></g></g></g><g fill="#ffffff" fill-opacity="1"><g transform="translate(408.316153, 273.160436)"><g><path d="M 68.078125 -68.078125 C 68.078125 -73.421875 65.410156 -76.09375 60.078125 -76.09375 L 37.375 -76.09375 C 32.039062 -76.09375 29.375 -73.421875 29.375 -68.078125 L 29.375 -25.359375 C 29.375 -20.023438 32.039062 -17.359375 37.375 -17.359375 L 60.078125 -17.359375 C 65.410156 -17.359375 68.078125 -20.023438 68.078125 -25.359375 Z M 92.109375 -25.359375 C 92.109375 -16.015625 89.992188 -9.226562 85.765625 -5 C 81.546875 -0.78125 74.765625 1.328125 65.421875 1.328125 L 32.046875 1.328125 C 22.691406 1.328125 15.898438 -0.78125 11.671875 -5 C 7.453125 -9.226562 5.34375 -16.015625 5.34375 -25.359375 L 5.34375 -68.078125 C 5.34375 -77.429688 7.453125 -84.21875 11.671875 -88.4375 C 15.898438 -92.664062 22.691406 -94.78125 32.046875 -94.78125 L 65.421875 -94.78125 C 74.765625 -94.78125 81.546875 -92.664062 85.765625 -88.4375 C 89.992188 -84.21875 92.109375 -77.429688 92.109375 -68.078125 Z M 92.109375 -25.359375 "/></g></g></g><g fill="#ffffff" fill-opacity="1"><g transform="translate(505.77308, 273.160436)"><g><path d="M 32.046875 -18.6875 L 80.765625 -18.6875 L 80.765625 0 L 8.015625 0 L 8.015625 -93.453125 L 32.046875 -93.453125 Z M 32.046875 -18.6875 "/></g></g></g><g fill="#ffffff" fill-opacity="1"><g transform="translate(587.877203, 273.160436)"><g><path d="M 68.078125 -93.453125 L 92.109375 -93.453125 L 92.109375 -25.359375 C 92.109375 -16.015625 89.992188 -9.226562 85.765625 -5 C 81.546875 -0.78125 74.765625 1.328125 65.421875 1.328125 L 34.703125 1.328125 C 25.359375 1.328125 18.570312 -0.78125 14.34375 -5 C 10.125 -9.226562 8.015625 -16.015625 8.015625 -25.359375 L 8.015625 -93.453125 L 32.046875 -93.453125 L 32.046875 -25.359375 C 32.046875 -20.023438 34.710938 -17.359375 40.046875 -17.359375 L 60.078125 -17.359375 C 65.410156 -17.359375 68.078125 -20.023438 68.078125 -25.359375 Z M 68.078125 -93.453125 "/></g></g></g><g fill="#ffffff" fill-opacity="1"><g transform="translate(688.004155, 273.160436)"><g><path d="M 53.40625 0 L 29.375 0 L 29.375 -74.765625 L 1.328125 -74.765625 L 1.328125 -93.453125 L 81.4375 -93.453125 L 81.4375 -74.765625 L 53.40625 -74.765625 Z M 53.40625 0 "/></g></g></g><g fill="#ffffff" fill-opacity="1"><g transform="translate(770.775799, 273.160436)"><g><path d="M 52.0625 0 L 4 0 L 4 -18.6875 L 16.015625 -18.6875 L 16.015625 -74.765625 L 4 -74.765625 L 4 -93.453125 L 52.0625 -93.453125 L 52.0625 -74.765625 L 40.046875 -74.765625 L 40.046875 -18.6875 L 52.0625 -18.6875 Z M 52.0625 0 "/></g></g></g><g fill="#ffffff" fill-opacity="1"><g transform="translate(826.846922, 273.160436)"><g><path d="M 68.078125 -68.078125 C 68.078125 -73.421875 65.410156 -76.09375 60.078125 -76.09375 L 37.375 -76.09375 C 32.039062 -76.09375 29.375 -73.421875 29.375 -68.078125 L 29.375 -25.359375 C 29.375 -20.023438 32.039062 -17.359375 37.375 -17.359375 L 60.078125 -17.359375 C 65.410156 -17.359375 68.078125 -20.023438 68.078125 -25.359375 Z M 92.109375 -25.359375 C 92.109375 -16.015625 89.992188 -9.226562 85.765625 -5 C 81.546875 -0.78125 74.765625 1.328125 65.421875 1.328125 L 32.046875 1.328125 C 22.691406 1.328125 15.898438 -0.78125 11.671875 -5 C 7.453125 -9.226562 5.34375 -16.015625 5.34375 -25.359375 L 5.34375 -68.078125 C 5.34375 -77.429688 7.453125 -84.21875 11.671875 -88.4375 C 15.898438 -92.664062 22.691406 -94.78125 32.046875 -94.78125 L 65.421875 -94.78125 C 74.765625 -94.78125 81.546875 -92.664062 85.765625 -88.4375 C 89.992188 -84.21875 92.109375 -77.429688 92.109375 -68.078125 Z M 92.109375 -25.359375 "/></g></g></g><g fill="#ffffff" fill-opacity="1"><g transform="translate(924.30383, 273.160436)"><g><path d="M 89.4375 0 L 64.078125 0 L 32.046875 -56.0625 L 32.046875 0 L 8.015625 0 L 8.015625 -93.453125 L 33.375 -93.453125 L 65.421875 -37.375 L 65.421875 -93.453125 L 89.4375 -93.453125 Z M 89.4375 0 "/></g></g></g><g fill="#ffffff" fill-opacity="1"><g transform="translate(1021.760737, 273.160436)"><g><path d="M 5.203125 -19.359375 C 29.585938 -18.023438 46.097656 -17.359375 54.734375 -17.359375 C 56.785156 -17.359375 58.410156 -17.957031 59.609375 -19.15625 C 60.804688 -20.351562 61.40625 -21.976562 61.40625 -24.03125 L 61.40625 -36.046875 L 30.703125 -36.046875 C 21.359375 -36.046875 14.570312 -38.160156 10.34375 -42.390625 C 6.113281 -46.617188 4 -53.40625 4 -62.75 L 4 -66.75 C 4 -76.09375 6.113281 -82.878906 10.34375 -87.109375 C 14.570312 -91.335938 21.359375 -93.453125 30.703125 -93.453125 L 77.5625 -93.453125 L 77.5625 -74.765625 L 36.046875 -74.765625 C 30.703125 -74.765625 28.03125 -72.09375 28.03125 -66.75 L 28.03125 -64.078125 C 28.03125 -58.734375 30.703125 -56.0625 36.046875 -56.0625 L 60.078125 -56.0625 C 68.796875 -56.0625 75.203125 -54.015625 79.296875 -49.921875 C 83.390625 -45.828125 85.4375 -39.421875 85.4375 -30.703125 L 85.4375 -24.03125 C 85.4375 -15.3125 83.390625 -8.90625 79.296875 -4.8125 C 75.203125 -0.71875 68.796875 1.328125 60.078125 1.328125 C 55.535156 1.328125 50.726562 1.238281 45.65625 1.0625 L 33.375 0.53125 C 24.300781 0.0820312 14.910156 -0.535156 5.203125 -1.328125 Z M 5.203125 -19.359375 "/></g></g></g></svg>