<svg xmlns="http://www.w3.org/2000/svg" xmlns:xlink="http://www.w3.org/1999/xlink" width="1587" zoomAndPan="magnify" viewBox="0 0 1190.25 340.499992" height="453" preserveAspectRatio="xMidYMid meet" version="1.0"><defs><g/><clipPath id="id1"><path d="M 0.5 0 L 1189.003906 0 L 1189.003906 340 L 0.5 340 Z M 0.5 0 " clip-rule="nonzero"/></clipPath><clipPath id="id2"><path d="M 83 78 L 292 78 L 292 262 L 83 262 Z M 83 78 " clip-rule="nonzero"/></clipPath><clipPath id="id3"><path d="M 55.902344 129.785156 L 208.816406 33.90625 L 319.015625 209.65625 L 166.105469 305.539062 Z M 55.902344 129.785156 " clip-rule="nonzero"/></clipPath><clipPath id="id4"><path d="M 55.902344 129.785156 L 208.816406 33.90625 L 319.015625 209.65625 L 166.105469 305.539062 Z M 55.902344 129.785156 " clip-rule="nonzero"/></clipPath></defs><g clip-path="url(#id1)"><path fill="#ffffff" d="M 0.5 0 L 1189.003906 0 L 1189.003906 340 L 0.5 340 Z M 0.5 0 " fill-opacity="1" fill-rule="nonzero"/><path fill="#ffffff" d="M 0.5 0 L 1189.003906 0 L 1189.003906 340 L 0.5 340 Z M 0.5 0 " fill-opacity="1" fill-rule="nonzero"/><path fill="#ffffff" d="M 0.5 0 L 1189.003906 0 L 1189.003906 340 L 0.5 340 Z M 0.5 0 " fill-opacity="1" fill-rule="nonzero"/></g><g clip-path="url(#id2)"><g clip-path="url(#id3)"><g clip-path="url(#id4)"><path fill="#ff00ff" d="M 132.402344 81.914062 L 83.582031 173.929688 L 138.425781 261.394531 L 242.519531 257.53125 L 291.339844 165.511719 L 236.496094 78.050781 Z M 237.496094 167.132812 L 163.335938 213.632812 L 164.300781 132.785156 Z M 151.140625 212.464844 L 100.734375 173.738281 L 152.0625 135.496094 Z M 242.433594 178.425781 L 233.707031 243.476562 L 171.351562 223 Z M 241.753906 155.648438 L 172.070312 122.949219 L 228.851562 93.40625 Z M 160.496094 115.226562 L 146.925781 93.582031 L 206.335938 91.375 Z M 150.152344 121.710938 L 108.714844 152.589844 L 136.578125 100.066406 Z M 149.375 226.503906 L 141.160156 242.765625 L 113.847656 199.207031 Z M 160.175781 232.171875 L 204.511719 246.734375 L 151.832031 248.691406 Z M 255.5625 172.363281 L 274.0625 172.046875 L 249.355469 218.617188 Z M 255.164062 160.171875 L 246.066406 116.300781 L 273.378906 159.859375 Z M 255.164062 160.171875 " fill-opacity="1" fill-rule="nonzero"/></g></g></g><g fill="#000000" fill-opacity="1"><g transform="translate(328.401318, 157.113389)"><g><path d="M 5.96875 -69.65625 L 47.765625 -69.65625 C 54.734375 -69.65625 59.789062 -68.078125 62.9375 -64.921875 C 66.09375 -61.773438 67.671875 -56.722656 67.671875 -49.765625 L 67.671875 -39.8125 C 67.671875 -32.84375 66.09375 -27.78125 62.9375 -24.625 C 59.789062 -21.476562 54.734375 -19.90625 47.765625 -19.90625 L 23.890625 -19.90625 L 23.890625 0 L 5.96875 0 Z M 49.765625 -49.765625 C 49.765625 -53.742188 47.769531 -55.734375 43.78125 -55.734375 L 23.890625 -55.734375 L 23.890625 -33.828125 L 43.78125 -33.828125 C 47.769531 -33.828125 49.765625 -35.820312 49.765625 -39.8125 Z M 49.765625 -49.765625 "/></g></g></g><g fill="#000000" fill-opacity="1"><g transform="translate(399.051331, 157.113389)"><g><path d="M 61.203125 0 L 5.96875 0 L 5.96875 -69.65625 L 61.203125 -69.65625 L 61.203125 -55.734375 L 23.890625 -55.734375 L 23.890625 -42.296875 L 53.234375 -42.296875 L 53.234375 -28.359375 L 23.890625 -28.359375 L 23.890625 -13.9375 L 61.203125 -13.9375 Z M 61.203125 0 "/></g></g></g><g fill="#000000" fill-opacity="1"><g transform="translate(462.23831, 157.113389)"><g><path d="M 66.671875 0 L 47.765625 0 L 23.890625 -41.796875 L 23.890625 0 L 5.96875 0 L 5.96875 -69.65625 L 24.875 -69.65625 L 48.765625 -27.859375 L 48.765625 -69.65625 L 66.671875 -69.65625 Z M 66.671875 0 "/></g></g></g><g fill="#000000" fill-opacity="1"><g transform="translate(534.87845, 157.113389)"><g><path d="M 5.96875 -69.65625 L 45.78125 -69.65625 C 52.28125 -69.65625 57.054688 -68.175781 60.109375 -65.21875 C 63.160156 -62.269531 64.6875 -57.78125 64.6875 -51.75 C 64.6875 -47.769531 63.820312 -44.535156 62.09375 -42.046875 C 60.375 -39.554688 58.253906 -37.816406 55.734375 -36.828125 C 61.109375 -35.359375 64.753906 -31.773438 66.671875 -26.078125 C 67.335938 -24.015625 67.671875 -21.625 67.671875 -18.90625 C 67.671875 -12.40625 66.144531 -7.628906 63.09375 -4.578125 C 60.039062 -1.523438 55.265625 0 48.765625 0 L 5.96875 0 Z M 49.765625 -21.890625 C 49.765625 -25.867188 47.769531 -27.859375 43.78125 -27.859375 L 23.890625 -27.859375 L 23.890625 -13.9375 L 43.78125 -13.9375 C 47.769531 -13.9375 49.765625 -15.925781 49.765625 -19.90625 Z M 46.765625 -49.765625 C 46.765625 -53.742188 44.773438 -55.734375 40.796875 -55.734375 L 23.890625 -55.734375 L 23.890625 -41.796875 L 40.796875 -41.796875 C 44.773438 -41.796875 46.765625 -43.785156 46.765625 -47.765625 Z M 46.765625 -49.765625 "/></g></g></g><g fill="#000000" fill-opacity="1"><g transform="translate(605.528463, 157.113389)"><g><path d="M 5.96875 -69.65625 L 47.765625 -69.65625 C 54.734375 -69.65625 59.789062 -68.078125 62.9375 -64.921875 C 66.09375 -61.773438 67.671875 -56.722656 67.671875 -49.765625 L 67.671875 -40.796875 C 67.671875 -35.296875 66.757812 -31.019531 64.9375 -27.96875 C 63.113281 -24.914062 60.207031 -22.890625 56.21875 -21.890625 L 68.671875 0 L 49.265625 0 L 37.8125 -20.890625 L 23.890625 -20.890625 L 23.890625 0 L 5.96875 0 Z M 49.765625 -49.765625 C 49.765625 -53.742188 47.769531 -55.734375 43.78125 -55.734375 L 23.890625 -55.734375 L 23.890625 -34.828125 L 43.78125 -34.828125 C 47.769531 -34.828125 49.765625 -36.816406 49.765625 -40.796875 Z M 49.765625 -49.765625 "/></g></g></g><g fill="#000000" fill-opacity="1"><g transform="translate(677.173535, 157.113389)"><g><path d="M 18.40625 0 L -1 0 L 25.375 -69.65625 L 45.28125 -69.65625 L 71.65625 0 L 52.25 0 L 47.765625 -12.4375 L 22.890625 -12.4375 Z M 27.359375 -25.375 L 43.296875 -25.375 L 35.328125 -48.765625 Z M 27.359375 -25.375 "/></g></g></g><g fill="#000000" fill-opacity="1"><g transform="translate(747.823526, 157.113389)"><g><path d="M 65.6875 -38.8125 L 51.75 -13.9375 L 37.8125 -13.9375 L 23.890625 -38.8125 L 23.890625 0 L 5.96875 0 L 5.96875 -69.65625 L 24.875 -69.65625 L 44.78125 -32.84375 L 64.6875 -69.65625 L 83.59375 -69.65625 L 83.59375 0 L 65.6875 0 Z M 65.6875 -38.8125 "/></g></g></g><g fill="#000000" fill-opacity="1"><g transform="translate(837.379882, 157.113389)"><g/></g></g><g fill="#000000" fill-opacity="1"><g transform="translate(867.232015, 157.113389)"><g><path d="M 56.71875 -69.65625 L 68.671875 -24.875 L 79.109375 -69.65625 L 98.515625 -69.65625 L 79.609375 0 L 60.703125 0 L 48.765625 -43.296875 L 36.828125 0 L 17.90625 0 L -1 -69.65625 L 18.40625 -69.65625 L 28.859375 -24.875 L 40.796875 -69.65625 Z M 56.71875 -69.65625 "/></g></g></g><g fill="#000000" fill-opacity="1"><g transform="translate(964.748922, 157.113389)"><g><path d="M 61.203125 0 L 5.96875 0 L 5.96875 -69.65625 L 61.203125 -69.65625 L 61.203125 -55.734375 L 23.890625 -55.734375 L 23.890625 -42.296875 L 53.234375 -42.296875 L 53.234375 -28.359375 L 23.890625 -28.359375 L 23.890625 -13.9375 L 61.203125 -13.9375 Z M 61.203125 0 "/></g></g></g><g fill="#000000" fill-opacity="1"><g transform="translate(1027.935913, 157.113389)"><g><path d="M 5.96875 -69.65625 L 45.78125 -69.65625 C 52.28125 -69.65625 57.054688 -68.175781 60.109375 -65.21875 C 63.160156 -62.269531 64.6875 -57.78125 64.6875 -51.75 C 64.6875 -47.769531 63.820312 -44.535156 62.09375 -42.046875 C 60.375 -39.554688 58.253906 -37.816406 55.734375 -36.828125 C 61.109375 -35.359375 64.753906 -31.773438 66.671875 -26.078125 C 67.335938 -24.015625 67.671875 -21.625 67.671875 -18.90625 C 67.671875 -12.40625 66.144531 -7.628906 63.09375 -4.578125 C 60.039062 -1.523438 55.265625 0 48.765625 0 L 5.96875 0 Z M 49.765625 -21.890625 C 49.765625 -25.867188 47.769531 -27.859375 43.78125 -27.859375 L 23.890625 -27.859375 L 23.890625 -13.9375 L 43.78125 -13.9375 C 47.769531 -13.9375 49.765625 -15.925781 49.765625 -19.90625 Z M 46.765625 -49.765625 C 46.765625 -53.742188 44.773438 -55.734375 40.796875 -55.734375 L 23.890625 -55.734375 L 23.890625 -41.796875 L 40.796875 -41.796875 C 44.773438 -41.796875 46.765625 -43.785156 46.765625 -47.765625 Z M 46.765625 -49.765625 "/></g></g></g><g fill="#000000" fill-opacity="1"><g transform="translate(329.468624, 269.951009)"><g><path d="M 5 -18.609375 C 28.457031 -17.328125 44.335938 -16.6875 52.640625 -16.6875 C 54.609375 -16.6875 56.171875 -17.265625 57.328125 -18.421875 C 58.484375 -19.578125 59.0625 -21.140625 59.0625 -23.109375 L 59.0625 -34.671875 L 29.53125 -34.671875 C 20.539062 -34.671875 14.015625 -36.703125 9.953125 -40.765625 C 5.890625 -44.828125 3.859375 -51.351562 3.859375 -60.34375 L 3.859375 -64.1875 C 3.859375 -73.175781 5.890625 -79.703125 9.953125 -83.765625 C 14.015625 -87.835938 20.539062 -89.875 29.53125 -89.875 L 74.59375 -89.875 L 74.59375 -71.90625 L 34.671875 -71.90625 C 29.535156 -71.90625 26.96875 -69.332031 26.96875 -64.1875 L 26.96875 -61.625 C 26.96875 -56.488281 29.535156 -53.921875 34.671875 -53.921875 L 57.78125 -53.921875 C 66.164062 -53.921875 72.328125 -51.953125 76.265625 -48.015625 C 80.203125 -44.078125 82.171875 -37.914062 82.171875 -29.53125 L 82.171875 -23.109375 C 82.171875 -14.722656 80.203125 -8.5625 76.265625 -4.625 C 72.328125 -0.6875 66.164062 1.28125 57.78125 1.28125 C 53.414062 1.28125 48.789062 1.195312 43.90625 1.03125 L 32.09375 0.515625 C 23.363281 0.0859375 14.332031 -0.507812 5 -1.28125 Z M 5 -18.609375 "/></g></g></g><g fill="#000000" fill-opacity="1"><g transform="translate(415.487296, 269.951009)"><g><path d="M 65.484375 -65.484375 C 65.484375 -70.617188 62.914062 -73.1875 57.78125 -73.1875 L 35.953125 -73.1875 C 30.816406 -73.1875 28.25 -70.617188 28.25 -65.484375 L 28.25 -24.390625 C 28.25 -19.253906 30.816406 -16.6875 35.953125 -16.6875 L 57.78125 -16.6875 C 62.914062 -16.6875 65.484375 -19.253906 65.484375 -24.390625 Z M 88.59375 -24.390625 C 88.59375 -15.398438 86.554688 -8.875 82.484375 -4.8125 C 78.421875 -0.75 71.894531 1.28125 62.90625 1.28125 L 30.8125 1.28125 C 21.820312 1.28125 15.296875 -0.75 11.234375 -4.8125 C 7.171875 -8.875 5.140625 -15.398438 5.140625 -24.390625 L 5.140625 -65.484375 C 5.140625 -74.460938 7.171875 -80.984375 11.234375 -85.046875 C 15.296875 -89.117188 21.820312 -91.15625 30.8125 -91.15625 L 62.90625 -91.15625 C 71.894531 -91.15625 78.421875 -89.117188 82.484375 -85.046875 C 86.554688 -80.984375 88.59375 -74.460938 88.59375 -65.484375 Z M 88.59375 -24.390625 "/></g></g></g><g fill="#000000" fill-opacity="1"><g transform="translate(509.209133, 269.951009)"><g><path d="M 30.8125 -17.96875 L 77.671875 -17.96875 L 77.671875 0 L 7.703125 0 L 7.703125 -89.875 L 30.8125 -89.875 Z M 30.8125 -17.96875 "/></g></g></g><g fill="#000000" fill-opacity="1"><g transform="translate(588.166583, 269.951009)"><g><path d="M 65.484375 -89.875 L 88.59375 -89.875 L 88.59375 -24.390625 C 88.59375 -15.398438 86.554688 -8.875 82.484375 -4.8125 C 78.421875 -0.75 71.894531 1.28125 62.90625 1.28125 L 33.375 1.28125 C 24.394531 1.28125 17.867188 -0.75 13.796875 -4.8125 C 9.734375 -8.875 7.703125 -15.398438 7.703125 -24.390625 L 7.703125 -89.875 L 30.8125 -89.875 L 30.8125 -24.390625 C 30.8125 -19.253906 33.378906 -16.6875 38.515625 -16.6875 L 57.78125 -16.6875 C 62.914062 -16.6875 65.484375 -19.253906 65.484375 -24.390625 Z M 65.484375 -89.875 "/></g></g></g><g fill="#000000" fill-opacity="1"><g transform="translate(684.456139, 269.951009)"><g><path d="M 51.359375 0 L 28.25 0 L 28.25 -71.90625 L 1.28125 -71.90625 L 1.28125 -89.875 L 78.3125 -89.875 L 78.3125 -71.90625 L 51.359375 -71.90625 Z M 51.359375 0 "/></g></g></g><g fill="#000000" fill-opacity="1"><g transform="translate(764.055499, 269.951009)"><g><path d="M 50.078125 0 L 3.859375 0 L 3.859375 -17.96875 L 15.40625 -17.96875 L 15.40625 -71.90625 L 3.859375 -71.90625 L 3.859375 -89.875 L 50.078125 -89.875 L 50.078125 -71.90625 L 38.515625 -71.90625 L 38.515625 -17.96875 L 50.078125 -17.96875 Z M 50.078125 0 "/></g></g></g><g fill="#000000" fill-opacity="1"><g transform="translate(817.977634, 269.951009)"><g><path d="M 65.484375 -65.484375 C 65.484375 -70.617188 62.914062 -73.1875 57.78125 -73.1875 L 35.953125 -73.1875 C 30.816406 -73.1875 28.25 -70.617188 28.25 -65.484375 L 28.25 -24.390625 C 28.25 -19.253906 30.816406 -16.6875 35.953125 -16.6875 L 57.78125 -16.6875 C 62.914062 -16.6875 65.484375 -19.253906 65.484375 -24.390625 Z M 88.59375 -24.390625 C 88.59375 -15.398438 86.554688 -8.875 82.484375 -4.8125 C 78.421875 -0.75 71.894531 1.28125 62.90625 1.28125 L 30.8125 1.28125 C 21.820312 1.28125 15.296875 -0.75 11.234375 -4.8125 C 7.171875 -8.875 5.140625 -15.398438 5.140625 -24.390625 L 5.140625 -65.484375 C 5.140625 -74.460938 7.171875 -80.984375 11.234375 -85.046875 C 15.296875 -89.117188 21.820312 -91.15625 30.8125 -91.15625 L 62.90625 -91.15625 C 71.894531 -91.15625 78.421875 -89.117188 82.484375 -85.046875 C 86.554688 -80.984375 88.59375 -74.460938 88.59375 -65.484375 Z M 88.59375 -24.390625 "/></g></g></g><g fill="#000000" fill-opacity="1"><g transform="translate(911.699482, 269.951009)"><g><path d="M 86.015625 0 L 61.625 0 L 30.8125 -53.921875 L 30.8125 0 L 7.703125 0 L 7.703125 -89.875 L 32.09375 -89.875 L 62.90625 -35.953125 L 62.90625 -89.875 L 86.015625 -89.875 Z M 86.015625 0 "/></g></g></g><g fill="#000000" fill-opacity="1"><g transform="translate(1005.42133, 269.951009)"><g><path d="M 5 -18.609375 C 28.457031 -17.328125 44.335938 -16.6875 52.640625 -16.6875 C 54.609375 -16.6875 56.171875 -17.265625 57.328125 -18.421875 C 58.484375 -19.578125 59.0625 -21.140625 59.0625 -23.109375 L 59.0625 -34.671875 L 29.53125 -34.671875 C 20.539062 -34.671875 14.015625 -36.703125 9.953125 -40.765625 C 5.890625 -44.828125 3.859375 -51.351562 3.859375 -60.34375 L 3.859375 -64.1875 C 3.859375 -73.175781 5.890625 -79.703125 9.953125 -83.765625 C 14.015625 -87.835938 20.539062 -89.875 29.53125 -89.875 L 74.59375 -89.875 L 74.59375 -71.90625 L 34.671875 -71.90625 C 29.535156 -71.90625 26.96875 -69.332031 26.96875 -64.1875 L 26.96875 -61.625 C 26.96875 -56.488281 29.535156 -53.921875 34.671875 -53.921875 L 57.78125 -53.921875 C 66.164062 -53.921875 72.328125 -51.953125 76.265625 -48.015625 C 80.203125 -44.078125 82.171875 -37.914062 82.171875 -29.53125 L 82.171875 -23.109375 C 82.171875 -14.722656 80.203125 -8.5625 76.265625 -4.625 C 72.328125 -0.6875 66.164062 1.28125 57.78125 1.28125 C 53.414062 1.28125 48.789062 1.195312 43.90625 1.03125 L 32.09375 0.515625 C 23.363281 0.0859375 14.332031 -0.507812 5 -1.28125 Z M 5 -18.609375 "/></g></g></g></svg>